<svg width="38" height="38" viewBox="0 0 38 38" fill="none" xmlns="http://www.w3.org/2000/svg">
<path d="M16.0036 26.834C16.1936 26.834 16.3377 26.8277 16.4327 26.815C16.5441 26.7925 16.6446 26.7327 16.7177 26.6456C16.8127 26.5459 16.8602 26.4018 16.8602 26.2118L16.8539 25.3299C16.8491 24.7678 16.8475 24.3213 16.8475 23.9935L16.5499 24.0458C16.3117 24.0833 16.0704 24.0981 15.8294 24.0901C15.5267 24.0848 15.2248 24.0546 14.9269 23.9999C14.6109 23.9409 14.3134 23.8074 14.0593 23.6104C13.7929 23.4088 13.5941 23.1311 13.4893 22.8139L13.3595 22.5147C13.2502 22.279 13.1131 22.0574 12.9509 21.8544C12.8054 21.6464 12.6114 21.4768 12.3857 21.3604L12.2954 21.2971C12.2333 21.2513 12.1769 21.1982 12.1276 21.1388C12.0797 21.0848 12.0402 21.024 12.0104 20.9583C11.9851 20.8981 12.0057 20.8474 12.0738 20.8094C12.1933 20.7614 12.3222 20.7414 12.4506 20.7509L12.7103 20.7904C12.8844 20.8237 13.0982 20.9282 13.3531 21.1008C13.6064 21.2749 13.817 21.4982 13.9817 21.7753C14.1812 22.1299 14.4203 22.4007 14.7021 22.5859C14.9509 22.7614 15.2464 22.8584 15.5508 22.8646C15.8358 22.8646 16.0828 22.844 16.2902 22.8013C16.4921 22.7594 16.6882 22.6935 16.8744 22.6049C16.952 22.027 17.1626 21.5805 17.5078 21.2702C17.0597 21.2259 16.6156 21.1475 16.1794 21.0359C15.7534 20.9185 15.3439 20.7483 14.9602 20.5292C14.5584 20.3112 14.2033 20.0164 13.9152 19.6615C13.6397 19.3148 13.4133 18.8619 13.2344 18.2999C13.0478 17.6684 12.9587 17.0123 12.9699 16.3539C12.9699 15.3089 13.3119 14.4175 13.9944 13.6829C13.6745 12.8959 13.7046 12.014 14.0846 11.0371C14.3364 10.9579 14.7084 11.0165 15.2009 11.2113C15.6933 11.406 16.0559 11.5723 16.2839 11.7116C16.5135 11.8494 16.6955 11.9649 16.8349 12.0599C17.6458 11.8347 18.4838 11.7218 19.3254 11.7243C20.1804 11.7243 21.0117 11.8351 21.816 12.0615L22.3069 11.7496C22.6457 11.5438 23.0431 11.3522 23.5007 11.1796C23.9599 11.0054 24.3098 10.9579 24.552 11.0371C24.9415 12.014 24.9764 12.8959 24.655 13.6813C25.339 14.4175 25.6809 15.3074 25.6809 16.3539C25.6809 17.0886 25.5923 17.7394 25.4149 18.3062C25.2376 18.873 25.008 19.3259 24.7278 19.6679C24.4349 20.0192 24.0782 20.312 23.6765 20.5308C23.2928 20.7499 22.8832 20.9201 22.4573 21.0374C22.0205 21.1487 21.5759 21.2265 21.1273 21.2702C21.577 21.6581 21.8018 22.2724 21.8018 23.1116V26.2102C21.8018 26.3574 21.824 26.4762 21.8667 26.568C21.8868 26.6118 21.9156 26.651 21.9512 26.6834C21.9868 26.7158 22.0286 26.7406 22.0741 26.7564C22.1691 26.7897 22.2546 26.8119 22.3274 26.8198C22.4019 26.8293 22.5064 26.834 22.6441 26.834H16.0036Z" fill="white"/>
<path d="M9.938 6.969C9.15057 6.969 8.3954 7.2818 7.8386 7.8386C7.2818 8.3954 6.969 9.15057 6.969 9.938V27.752C6.969 28.5394 7.2818 29.2946 7.8386 29.8514C8.3954 30.4082 9.15057 30.721 9.938 30.721H27.752C28.5394 30.721 29.2946 30.4082 29.8514 29.8514C30.4082 29.2946 30.721 28.5394 30.721 27.752V9.938C30.721 9.15057 30.4082 8.3954 29.8514 7.8386C29.2946 7.2818 28.5394 6.969 27.752 6.969H9.938ZM9.938 4H27.752C29.3269 4 30.8372 4.62561 31.9508 5.7392C33.0644 6.85279 33.69 8.36314 33.69 9.938V27.752C33.69 29.3269 33.0644 30.8372 31.9508 31.9508C30.8372 33.0644 29.3269 33.69 27.752 33.69H9.938C8.36314 33.69 6.85279 33.0644 5.7392 31.9508C4.62561 30.8372 4 29.3269 4 27.752V9.938C4 8.36314 4.62561 6.85279 5.7392 5.7392C6.85279 4.62561 8.36314 4 9.938 4Z" fill="white"/>
</svg>
