<svg width="38" height="38" viewBox="0 0 38 38" fill="none" xmlns="http://www.w3.org/2000/svg">
<path d="M16.0036 11.166C16.1936 11.166 16.3377 11.1723 16.4327 11.185C16.5441 11.2075 16.6446 11.2673 16.7177 11.3544C16.8127 11.4541 16.8602 11.5982 16.8602 11.7882L16.8539 12.6701C16.8491 13.2322 16.8475 13.6787 16.8475 14.0065L16.5499 13.9542C16.3117 13.9167 16.0704 13.9019 15.8294 13.9099C15.5267 13.9152 15.2248 13.9454 14.9269 14.0001C14.6109 14.0591 14.3134 14.1926 14.0593 14.3896C13.7929 14.5912 13.5941 14.8689 13.4893 15.1861L13.3595 15.4853C13.2502 15.721 13.1131 15.9426 12.9509 16.1456C12.8054 16.3536 12.6114 16.5232 12.3857 16.6396L12.2954 16.7029C12.2333 16.7487 12.1769 16.8018 12.1276 16.8612C12.0797 16.9152 12.0402 16.976 12.0104 17.0417C11.9851 17.1019 12.0057 17.1526 12.0738 17.1906C12.1933 17.2386 12.3222 17.2586 12.4506 17.2491L12.7103 17.2096C12.8844 17.1763 13.0982 17.0718 13.3531 16.8992C13.6064 16.7251 13.817 16.5018 13.9817 16.2247C14.1812 15.8701 14.4203 15.5993 14.7021 15.4141C14.9509 15.2386 15.2464 15.1416 15.5508 15.1354C15.8358 15.1354 16.0828 15.156 16.2902 15.1987C16.4921 15.2406 16.6882 15.3065 16.8744 15.3951C16.952 15.973 17.1626 16.4195 17.5078 16.7298C17.0597 16.7741 16.6156 16.8525 16.1794 16.9641C15.7534 17.0815 15.3439 17.2517 14.9602 17.4708C14.5584 17.6888 14.2033 17.9836 13.9152 18.3385C13.6397 18.6852 13.4133 19.1381 13.2344 19.7001C13.0478 20.3316 12.9587 20.9877 12.9699 21.6461C12.9699 22.6911 13.3119 23.5825 13.9944 24.3171C13.6745 25.1041 13.7046 25.986 14.0846 26.9629C14.3364 27.0421 14.7084 26.9835 15.2009 26.7887C15.6933 26.594 16.0559 26.4277 16.2839 26.2884C16.5135 26.1506 16.6955 26.0351 16.8349 25.9401C17.6458 26.1653 18.4838 26.2782 19.3254 26.2757C20.1804 26.2757 21.0117 26.1649 21.816 25.9385L22.3069 26.2504C22.6457 26.4562 23.0431 26.6478 23.5007 26.8204C23.9599 26.9946 24.3098 27.0421 24.552 26.9629C24.9415 25.986 24.9764 25.1041 24.655 24.3187C25.339 23.5825 25.6809 22.6926 25.6809 21.6461C25.6809 20.9114 25.5923 20.2606 25.4149 19.6938C25.2376 19.127 25.008 18.6741 24.7278 18.3321C24.4349 17.9808 24.0782 17.688 23.6765 17.4692C23.2928 17.2501 22.8832 17.0799 22.4573 16.9626C22.0205 16.8513 21.5759 16.7735 21.1273 16.7298C21.577 16.3419 21.8018 15.7276 21.8018 14.8884V11.7898C21.8018 11.6426 21.824 11.5238 21.8667 11.432C21.8868 11.3882 21.9156 11.349 21.9512 11.3166C21.9868 11.2842 22.0286 11.2594 22.0741 11.2436C22.1691 11.2103 22.2546 11.1881 22.3274 11.1802C22.4019 11.1707 22.5064 11.166 22.6441 11.166H16.0036Z" fill="url(#paint0_linear_71_43)"/>
<path d="M9.938 31.031C9.15057 31.031 8.3954 30.7182 7.8386 30.1614C7.2818 29.6046 6.969 28.8494 6.969 28.062V10.248C6.969 9.46057 7.2818 8.7054 7.8386 8.1486C8.3954 7.5918 9.15057 7.279 9.938 7.279H27.752C28.5394 7.279 29.2946 7.5918 29.8514 8.1486C30.4082 8.7054 30.721 9.46057 30.721 10.248V28.062C30.721 28.8494 30.4082 29.6046 29.8514 30.1614C29.2946 30.7182 28.5394 31.031 27.752 31.031H9.938ZM9.938 34H27.752C29.3269 34 30.8372 33.3744 31.9508 32.2608C33.0644 31.1472 33.69 29.6369 33.69 28.062V10.248C33.69 8.67314 33.0644 7.16279 31.9508 6.0492C30.8372 4.93561 29.3269 4.31 27.752 4.31H9.938C8.36314 4.31 6.85279 4.93561 5.7392 6.0492C4.62561 7.16279 4 8.67314 4 10.248V28.062C4 29.6369 4.62561 31.1472 5.7392 32.2608C6.85279 33.3744 8.36314 34 9.938 34Z" fill="url(#paint1_linear_71_43)"/>
<defs>
<linearGradient id="paint0_linear_71_43" x1="17.9903" y1="25.2119" x2="16.4098" y2="5.7986" gradientUnits="userSpaceOnUse">
<stop stop-color="#121212" stop-opacity="0"/>
<stop offset="1" stop-color="#DC3535" stop-opacity="0.856"/>
</linearGradient>
<linearGradient id="paint1_linear_71_43" x1="17" y1="30.6471" x2="14.4351" y2="-5.81508" gradientUnits="userSpaceOnUse">
<stop stop-color="#121212" stop-opacity="0"/>
<stop offset="1" stop-color="#DC3535" stop-opacity="0.856"/>
</linearGradient>
</defs>
</svg>
