<svg width="38" height="38" viewBox="0 0 38 38" fill="none" xmlns="http://www.w3.org/2000/svg">
<path d="M19 11.875C17.5908 11.875 16.2133 12.2929 15.0416 13.0758C13.8699 13.8587 12.9566 14.9715 12.4174 16.2734C11.8781 17.5753 11.737 19.0079 12.0119 20.39C12.2868 21.7721 12.9654 23.0417 13.9619 24.0381C14.9583 25.0346 16.2279 25.7132 17.61 25.9881C18.9921 26.263 20.4247 26.1219 21.7266 25.5826C23.0285 25.0434 24.1413 24.1301 24.9242 22.9584C25.7071 21.7867 26.125 20.4092 26.125 19C26.125 17.1103 25.3743 15.2981 24.0381 13.9619C22.7019 12.6257 20.8897 11.875 19 11.875ZM19 23.75C18.0605 23.75 17.1422 23.4714 16.361 22.9495C15.5799 22.4275 14.9711 21.6857 14.6116 20.8177C14.2521 19.9498 14.158 18.9947 14.3413 18.0733C14.5245 17.1519 14.9769 16.3055 15.6412 15.6412C16.3055 14.9769 17.1519 14.5245 18.0733 14.3413C18.9947 14.158 19.9498 14.2521 20.8177 14.6116C21.6857 14.9711 22.4275 15.5799 22.9495 16.361C23.4714 17.1422 23.75 18.0605 23.75 19C23.7461 20.2586 23.2444 21.4645 22.3544 22.3544C21.4645 23.2444 20.2586 23.7461 19 23.75ZM25.5312 4.15625H12.4688C10.2641 4.15625 8.14982 5.03203 6.59092 6.59092C5.03203 8.14982 4.15625 10.2641 4.15625 12.4688V25.5312C4.15625 27.7359 5.03203 29.8502 6.59092 31.4091C8.14982 32.968 10.2641 33.8438 12.4688 33.8438H25.5312C27.7359 33.8438 29.8502 32.968 31.4091 31.4091C32.968 29.8502 33.8438 27.7359 33.8438 25.5312V12.4688C33.8438 10.2641 32.968 8.14982 31.4091 6.59092C29.8502 5.03203 27.7359 4.15625 25.5312 4.15625ZM31.4688 25.5312C31.4688 26.311 31.3152 27.0831 31.0168 27.8034C30.7184 28.5238 30.281 29.1783 29.7297 29.7297C29.1783 30.281 28.5238 30.7184 27.8034 31.0168C27.0831 31.3152 26.311 31.4688 25.5312 31.4688H12.4688C11.689 31.4688 10.9169 31.3152 10.1966 31.0168C9.4762 30.7184 8.82165 30.281 8.2703 29.7297C7.71896 29.1783 7.2816 28.5238 6.98322 27.8034C6.68483 27.0831 6.53125 26.311 6.53125 25.5312V12.4688C6.53125 10.894 7.15681 9.3838 8.2703 8.2703C9.3838 7.15681 10.894 6.53125 12.4688 6.53125H25.5312C26.311 6.53125 27.0831 6.68483 27.8034 6.98322C28.5238 7.2816 29.1783 7.71896 29.7297 8.2703C30.281 8.82165 30.7184 9.4762 31.0168 10.1966C31.3152 10.9169 31.4688 11.689 31.4688 12.4688V25.5312ZM28.5 11.2812C28.5 11.6335 28.3955 11.9779 28.1998 12.2709C28.0041 12.5638 27.7259 12.7921 27.4004 12.9269C27.0749 13.0617 26.7168 13.097 26.3712 13.0283C26.0257 12.9595 25.7083 12.7899 25.4592 12.5408C25.2101 12.2917 25.0405 11.9743 24.9717 11.6288C24.903 11.2832 24.9383 10.9251 25.0731 10.5996C25.2079 10.2741 25.4362 9.99592 25.7291 9.80019C26.0221 9.60447 26.3665 9.5 26.7188 9.5C27.1912 9.5 27.6442 9.68767 27.9783 10.0217C28.3123 10.3558 28.5 10.8088 28.5 11.2812Z" fill="white"/>
</svg>
