<svg width="38" height="38" viewBox="0 0 38 38" fill="none" xmlns="http://www.w3.org/2000/svg">
<path d="M19 26.125C17.5908 26.125 16.2133 25.7071 15.0416 24.9242C13.8699 24.1413 12.9566 23.0285 12.4174 21.7266C11.8781 20.4247 11.737 18.9921 12.0119 17.61C12.2868 16.2279 12.9654 14.9583 13.9619 13.9619C14.9583 12.9654 16.2279 12.2868 17.61 12.0119C18.9921 11.737 20.4247 11.8781 21.7266 12.4174C23.0285 12.9566 24.1413 13.8699 24.9242 15.0416C25.7071 16.2133 26.125 17.5908 26.125 19C26.125 20.8897 25.3743 22.7019 24.0381 24.0381C22.7019 25.3743 20.8897 26.125 19 26.125ZM19 14.25C18.0605 14.25 17.1422 14.5286 16.361 15.0505C15.5799 15.5725 14.9711 16.3143 14.6116 17.1823C14.2521 18.0502 14.158 19.0053 14.3413 19.9267C14.5245 20.8481 14.9769 21.6945 15.6412 22.3588C16.3055 23.0231 17.1519 23.4755 18.0733 23.6587C18.9947 23.842 19.9498 23.7479 20.8177 23.3884C21.6857 23.0289 22.4275 22.4201 22.9495 21.639C23.4714 20.8578 23.75 19.9395 23.75 19C23.7461 17.7414 23.2444 16.5355 22.3544 15.6456C21.4645 14.7556 20.2586 14.2539 19 14.25ZM25.5312 33.8438H12.4688C10.2641 33.8438 8.14982 32.968 6.59092 31.4091C5.03203 29.8502 4.15625 27.7359 4.15625 25.5312V12.4688C4.15625 10.2641 5.03203 8.14982 6.59092 6.59093C8.14982 5.03203 10.2641 4.15625 12.4688 4.15625H25.5312C27.7359 4.15625 29.8502 5.03203 31.4091 6.59093C32.968 8.14982 33.8438 10.2641 33.8438 12.4688V25.5312C33.8438 27.7359 32.968 29.8502 31.4091 31.4091C29.8502 32.968 27.7359 33.8438 25.5312 33.8438ZM31.4688 12.4688C31.4688 11.689 31.3152 10.9169 31.0168 10.1966C30.7184 9.4762 30.281 8.82165 29.7297 8.2703C29.1783 7.71896 28.5238 7.2816 27.8034 6.98321C27.0831 6.68483 26.311 6.53125 25.5312 6.53125H12.4688C11.689 6.53125 10.9169 6.68483 10.1966 6.98321C9.4762 7.2816 8.82165 7.71896 8.2703 8.2703C7.71896 8.82165 7.2816 9.4762 6.98322 10.1966C6.68483 10.9169 6.53125 11.689 6.53125 12.4688V25.5312C6.53125 27.106 7.15681 28.6162 8.2703 29.7297C9.3838 30.8432 10.894 31.4688 12.4688 31.4688H25.5312C26.311 31.4688 27.0831 31.3152 27.8034 31.0168C28.5238 30.7184 29.1783 30.281 29.7297 29.7297C30.281 29.1783 30.7184 28.5238 31.0168 27.8034C31.3152 27.0831 31.4688 26.311 31.4688 25.5312V12.4688ZM28.5 26.7188C28.5 26.3665 28.3955 26.0221 28.1998 25.7291C28.0041 25.4362 27.7259 25.2079 27.4004 25.0731C27.0749 24.9383 26.7168 24.903 26.3712 24.9717C26.0257 25.0405 25.7083 25.2101 25.4592 25.4592C25.2101 25.7083 25.0405 26.0257 24.9717 26.3712C24.903 26.7168 24.9383 27.0749 25.0731 27.4004C25.2079 27.7259 25.4362 28.0041 25.7291 28.1998C26.0221 28.3955 26.3665 28.5 26.7188 28.5C27.1912 28.5 27.6442 28.3123 27.9783 27.9783C28.3123 27.6442 28.5 27.1912 28.5 26.7188Z" fill="url(#paint0_linear_71_41)"/>
<defs>
<linearGradient id="paint0_linear_71_41" x1="17.1552" y1="30.4911" x2="14.5904" y2="-5.96798" gradientUnits="userSpaceOnUse">
<stop stop-color="#121212" stop-opacity="0"/>
<stop offset="1" stop-color="#DC3535" stop-opacity="0.856"/>
</linearGradient>
</defs>
</svg>
