<svg width="38" height="38" viewBox="0 0 38 38" fill="none" xmlns="http://www.w3.org/2000/svg">
<path d="M14.8438 26.125C14.8437 25.7727 14.7393 25.4283 14.5436 25.1354C14.3478 24.8425 14.0696 24.6142 13.7442 24.4793C13.4187 24.3445 13.0605 24.3092 12.715 24.378C12.3695 24.4467 12.0521 24.6164 11.803 24.8655C11.5539 25.1146 11.3842 25.432 11.3155 25.7775C11.2467 26.123 11.282 26.4812 11.4168 26.8067C11.5517 27.1321 11.78 27.4103 12.0729 27.6061C12.3658 27.8018 12.7102 27.9062 13.0625 27.9062C13.5349 27.9062 13.988 27.7186 14.322 27.3845C14.6561 27.0505 14.8437 26.5974 14.8438 26.125ZM33.8438 31.4688V6.53125C33.8438 5.90136 33.5935 5.29727 33.1481 4.85187C32.7027 4.40647 32.0986 4.15625 31.4688 4.15625H6.53125C5.90136 4.15625 5.29727 4.40647 4.85187 4.85187C4.40647 5.29727 4.15625 5.90136 4.15625 6.53125V31.4688C4.15625 32.0986 4.40647 32.7027 4.85187 33.1481C5.29727 33.5935 5.90136 33.8438 6.53125 33.8438H31.4688C32.0986 33.8438 32.7027 33.5935 33.1481 33.1481C33.5935 32.7027 33.8438 32.0986 33.8438 31.4688ZM31.4688 6.53125V31.4688H6.53125V6.53125H31.4688ZM13.0625 22.5625C12.7476 22.5625 12.4455 22.4374 12.2228 22.2147C12.0001 21.992 11.875 21.6899 11.875 21.375V11.875C11.875 11.5601 12.0001 11.258 12.2228 11.0353C12.4455 10.8126 12.7476 10.6875 13.0625 10.6875C13.3774 10.6875 13.6795 10.8126 13.9022 11.0353C14.1249 11.258 14.25 11.5601 14.25 11.875V21.375C14.25 21.6899 14.1249 21.992 13.9022 22.2147C13.6795 22.4374 13.3774 22.5625 13.0625 22.5625ZM21.9688 22.5625C20.8997 22.5626 19.8552 22.242 18.9703 21.6422C18.9054 21.9271 18.7377 22.1781 18.4992 22.3471C18.2608 22.5161 17.9684 22.5913 17.6781 22.5582C17.3877 22.5251 17.1197 22.3861 16.9254 22.1678C16.7312 21.9495 16.6242 21.6672 16.625 21.375V11.875C16.625 11.5601 16.7501 11.258 16.9728 11.0353C17.1955 10.8126 17.4976 10.6875 17.8125 10.6875C18.1274 10.6875 18.4295 10.8126 18.6522 11.0353C18.8749 11.258 19 11.5601 19 11.875V17.2188C19 18.0061 19.3128 18.7612 19.8695 19.318C20.4263 19.8747 21.1814 20.1875 21.9688 20.1875C22.7561 20.1875 23.5112 19.8747 24.068 19.318C24.6247 18.7612 24.9375 18.0061 24.9375 17.2188V11.875C24.9375 11.5601 25.0626 11.258 25.2853 11.0353C25.508 10.8126 25.8101 10.6875 26.125 10.6875C26.4399 10.6875 26.742 10.8126 26.9647 11.0353C27.1874 11.258 27.3125 11.5601 27.3125 11.875V17.2188C27.3125 18.636 26.7495 19.9952 25.7474 20.9974C24.7452 21.9995 23.386 22.5625 21.9688 22.5625Z" fill="url(#paint0_linear_71_39)"/>
<defs>
<linearGradient id="paint0_linear_71_39" x1="17.1552" y1="30.4911" x2="23.4297" y2="-9.01117" gradientUnits="userSpaceOnUse">
<stop stop-color="#121212" stop-opacity="0"/>
<stop offset="1" stop-color="#DC3535" stop-opacity="0.856"/>
</linearGradient>
</defs>
</svg>
