<svg width="38" height="38" viewBox="0 0 38 38" fill="none" xmlns="http://www.w3.org/2000/svg">
<path d="M14.8438 11.875C14.8437 12.2273 14.7393 12.5717 14.5436 12.8646C14.3478 13.1575 14.0696 13.3858 13.7442 13.5207C13.4187 13.6555 13.0605 13.6908 12.715 13.622C12.3695 13.5533 12.0521 13.3836 11.803 13.1345C11.5539 12.8854 11.3842 12.568 11.3155 12.2225C11.2467 11.877 11.282 11.5188 11.4168 11.1933C11.5517 10.8679 11.78 10.5897 12.0729 10.3939C12.3658 10.1982 12.7102 10.0938 13.0625 10.0938C13.5349 10.0938 13.988 10.2814 14.322 10.6155C14.6561 10.9495 14.8437 11.4026 14.8438 11.875ZM33.8438 6.53125V31.4688C33.8438 32.0986 33.5935 32.7027 33.1481 33.1481C32.7027 33.5935 32.0986 33.8438 31.4688 33.8438H6.53125C5.90136 33.8438 5.29727 33.5935 4.85187 33.1481C4.40647 32.7027 4.15625 32.0986 4.15625 31.4688V6.53125C4.15625 5.90136 4.40647 5.29727 4.85187 4.85187C5.29727 4.40647 5.90136 4.15625 6.53125 4.15625H31.4688C32.0986 4.15625 32.7027 4.40647 33.1481 4.85187C33.5935 5.29727 33.8438 5.90136 33.8438 6.53125ZM31.4688 31.4688V6.53125H6.53125V31.4688H31.4688ZM13.0625 15.4375C12.7476 15.4375 12.4455 15.5626 12.2228 15.7853C12.0001 16.008 11.875 16.3101 11.875 16.625V26.125C11.875 26.4399 12.0001 26.742 12.2228 26.9647C12.4455 27.1874 12.7476 27.3125 13.0625 27.3125C13.3774 27.3125 13.6795 27.1874 13.9022 26.9647C14.1249 26.742 14.25 26.4399 14.25 26.125V16.625C14.25 16.3101 14.1249 16.008 13.9022 15.7853C13.6795 15.5626 13.3774 15.4375 13.0625 15.4375ZM21.9688 15.4375C20.8997 15.4374 19.8552 15.758 18.9703 16.3578C18.9054 16.0729 18.7377 15.8219 18.4992 15.6529C18.2608 15.4839 17.9684 15.4087 17.6781 15.4418C17.3877 15.4749 17.1197 15.6139 16.9254 15.8322C16.7312 16.0505 16.6242 16.3328 16.625 16.625V26.125C16.625 26.4399 16.7501 26.742 16.9728 26.9647C17.1955 27.1874 17.4976 27.3125 17.8125 27.3125C18.1274 27.3125 18.4295 27.1874 18.6522 26.9647C18.8749 26.742 19 26.4399 19 26.125V20.7812C19 19.9939 19.3128 19.2388 19.8695 18.682C20.4263 18.1253 21.1814 17.8125 21.9688 17.8125C22.7561 17.8125 23.5112 18.1253 24.068 18.682C24.6247 19.2388 24.9375 19.9939 24.9375 20.7812V26.125C24.9375 26.4399 25.0626 26.742 25.2853 26.9647C25.508 27.1874 25.8101 27.3125 26.125 27.3125C26.4399 27.3125 26.742 27.1874 26.9647 26.9647C27.1874 26.742 27.3125 26.4399 27.3125 26.125V20.7812C27.3125 19.364 26.7495 18.0048 25.7474 17.0026C24.7452 16.0005 23.386 15.4375 21.9688 15.4375Z" fill="white"/>
</svg>
