<svg width="38" height="38" viewBox="0 0 38 38" fill="none" xmlns="http://www.w3.org/2000/svg">
<path d="M6.9 5C6.1025 5 5.42003 5.35465 4.8526 6.06394C4.2842 6.77444 4 7.62812 4 8.625V30.375C4 31.3719 4.2842 32.225 4.8526 32.9343C5.42003 33.6448 6.1025 34 6.9 34H30.1C30.8975 34 31.5805 33.6448 32.1489 32.9343C32.7163 32.225 33 31.3719 33 30.375V8.625C33 7.62812 32.7163 6.77444 32.1489 6.06394C31.5805 5.35465 30.8975 5 30.1 5H6.9ZM18.5 20.3254L6.9 26.75V8.625H30.1V26.75L18.5 20.3254ZM18.5 23.744L30.1 30.375H6.9L18.5 23.744ZM6.9 26.75V30.375V8.625V26.75Z" fill="url(#paint0_linear_71_37)"/>
<defs>
<linearGradient id="paint0_linear_71_37" x1="16.6979" y1="30.725" x2="6.42663" y2="-10.4817" gradientUnits="userSpaceOnUse">
<stop stop-color="#121212" stop-opacity="0"/>
<stop offset="1" stop-color="#DC3535" stop-opacity="0.856"/>
</linearGradient>
</defs>
</svg>
