<svg width="38" height="38" viewBox="0 0 38 38" fill="none" xmlns="http://www.w3.org/2000/svg">
<path d="M6.9 33C6.1025 33 5.42003 32.6454 4.8526 31.9361C4.2842 31.2256 4 30.3719 4 29.375V7.625C4 6.62813 4.2842 5.77504 4.8526 5.06575C5.42003 4.35525 6.1025 4 6.9 4H30.1C30.8975 4 31.5805 4.35525 32.1489 5.06575C32.7163 5.77504 33 6.62813 33 7.625V29.375C33 30.3719 32.7163 31.2256 32.1489 31.9361C31.5805 32.6454 30.8975 33 30.1 33H6.9ZM18.5 17.6746L6.9 11.25V29.375H30.1V11.25L18.5 17.6746ZM18.5 14.256L30.1 7.625H6.9L18.5 14.256ZM6.9 11.25V7.625V29.375V11.25Z" fill="white"/>
</svg>
