<svg width="15" height="15" viewBox="0 0 15 15" fill="none" xmlns="http://www.w3.org/2000/svg">
<path d="M10.4202 9.16981H9.76168L9.52827 8.94473C10.3735 7.96442 10.838 6.71288 10.8371 5.41853C10.8371 4.34684 10.5193 3.29923 9.92386 2.40816C9.32847 1.51708 8.48221 0.822578 7.49211 0.412463C6.502 0.00234776 5.41252 -0.104957 4.36142 0.104118C3.31033 0.313193 2.34485 0.829257 1.58705 1.58705C0.829257 2.34485 0.313193 3.31033 0.104118 4.36142C-0.104957 5.41252 0.00234776 6.502 0.412463 7.49211C0.822578 8.48221 1.51708 9.32847 2.40816 9.92386C3.29923 10.5193 4.34684 10.8371 5.41853 10.8371C6.76065 10.8371 7.99441 10.3452 8.94473 9.52827L9.16981 9.76168V10.4202L13.3379 14.58L14.58 13.3379L10.4202 9.16981ZM5.41853 9.16981C3.34281 9.16981 1.66724 7.49424 1.66724 5.41853C1.66724 3.34281 3.34281 1.66724 5.41853 1.66724C7.49424 1.66724 9.16981 3.34281 9.16981 5.41853C9.16981 7.49424 7.49424 9.16981 5.41853 9.16981Z" fill="#9AA0A6"/>
</svg>
