<svg width="37" height="27" viewBox="0 0 37 27" fill="none" xmlns="http://www.w3.org/2000/svg">
<path fill-rule="evenodd" clip-rule="evenodd" d="M6.85017e-08 8.59137C6.85017e-08 6.3128 0.909581 4.12755 2.52864 2.51635C4.14771 0.90516 6.34363 0 8.63333 0H28.3667C30.6564 0 32.8523 0.90516 34.4714 2.51635C36.0904 4.12755 37 6.3128 37 8.59137V19.7062C36.9997 21.3493 36.4419 22.9443 35.4171 24.2326C34.3922 25.521 32.9603 26.4273 31.3533 26.8049C29.7463 27.1824 28.0582 27.0089 26.5626 26.3126C25.067 25.6163 23.8514 24.438 23.1127 22.9684L22.6687 22.0921H14.3289L13.8873 22.9684C13.1485 24.4382 11.9327 25.6166 10.4368 26.3129C8.94096 27.0091 7.25268 27.1824 5.6455 26.8046C4.03833 26.4267 2.60643 25.52 1.58178 24.2312C0.557135 22.9424 -0.000225601 21.3471 6.85017e-08 19.7037V8.59137ZM9.86667 14.7281V12.2734H7.4V9.81871H9.86667V7.36403H12.3333V9.81871H14.8V12.2734H12.3333V14.7281H9.86667ZM24.6667 14.7281H22.2V12.2734H24.6667V14.7281ZM27.1333 9.81871H29.6V7.36403H27.1333V9.81871Z" fill="#121212"/>
</svg>
