<svg id="Layer_1" data-name="Layer 1" xmlns="http://www.w3.org/2000/svg" viewBox="0 0 319.72 507.86"><defs><style>.cls-1{fill:#1967d2;}.cls-1,.cls-3,.cls-4,.cls-5{fill-rule:evenodd;}.cls-2{fill:#4285f4;}.cls-3{fill:#fbbc04;}.cls-4{fill:#ea4335;}.cls-5{fill:#34a853;}.cls-6{fill:#fff;}</style></defs><title>google-travel</title><path class="cls-1" d="M79.39,21.75A21.75,21.75,0,0,1,101.14,0H218.59a21.75,21.75,0,0,1,21.75,21.75V139.2A21.75,21.75,0,0,1,218.59,161H101.14A21.75,21.75,0,0,1,79.39,139.2ZM118.54,37v81.57H200.1V37ZM77.76,507.86a40.78,40.78,0,1,1,40.78-40.78,40.78,40.78,0,0,1-40.78,40.78Zm163.12,0a40.78,40.78,0,1,1,40.78-40.78A40.78,40.78,0,0,1,240.88,507.86Z"/><rect class="cls-2" y="94.61" width="319.72" height="370.83" rx="39.15"/><path class="cls-3" d="M0,133.77V426.29A39.06,39.06,0,0,0,1.78,438L160,279.77,2,121.46A39.3,39.3,0,0,0,0,133.77Z"/><path class="cls-4" d="M159.6,280.57l.8-.8.8.8ZM2.37,121.46A39.16,39.16,0,0,1,39.54,94.61H281a39.16,39.16,0,0,1,37.24,27.06L160.4,279.49Z"/><path class="cls-5" d="M159.41,279.48l.8.8.79-.8ZM2.18,438.6a39.17,39.17,0,0,0,37.16,26.85H280.78A39.18,39.18,0,0,0,318,438.38L160.2,280.57Z"/><circle class="cls-2" cx="159.86" cy="279.48" r="78.3"/><path class="cls-6" d="M253.64,263.48a107.2,107.2,0,0,1,1.83,19.75c0,53.74-36,91.95-90.46,91.95a94.07,94.07,0,1,1,0-188.13c25.44,0,46.7,9.34,63,24.51l-26.57,26.52V238c-9.89-9.41-22.43-14.23-36.45-14.23-31.1,0-56.36,26.22-56.36,57.27s25.26,57.32,56.36,57.32c28.21,0,47.41-16.11,51.36-38.21H165V263.48Z"/></svg>