<svg width="60" height="60" viewBox="0 0 60 60" fill="none" xmlns="http://www.w3.org/2000/svg">
<circle cx="30" cy="30" r="30" fill="white"/>
<mask id="mask0_90_6" style="mask-type:luminance" maskUnits="userSpaceOnUse" x="19" y="19" width="21" height="21">
<path d="M20.6459 26.375H26.375V20.6458C26.375 20.3696 26.4848 20.1046 26.6801 19.9093C26.8755 19.7139 27.1404 19.6042 27.4167 19.6042H31.5834C31.8596 19.6042 32.1246 19.7139 32.3199 19.9093C32.5153 20.1046 32.625 20.3696 32.625 20.6458V26.375H38.3542C38.6305 26.375 38.8954 26.4847 39.0908 26.6801C39.2861 26.8754 39.3959 27.1404 39.3959 27.4167V31.5833C39.3959 31.8596 39.2861 32.1245 39.0908 32.3199C38.8954 32.5152 38.6305 32.625 38.3542 32.625H32.625V38.3542C32.625 38.6304 32.5153 38.8954 32.3199 39.0907C32.1246 39.2861 31.8596 39.3958 31.5834 39.3958H27.4167C27.1404 39.3958 26.8755 39.2861 26.6801 39.0907C26.4848 38.8954 26.375 38.6304 26.375 38.3542V32.625H20.6459C20.3696 32.625 20.1046 32.5152 19.9093 32.3199C19.7139 32.1245 19.6042 31.8596 19.6042 31.5833V27.4167C19.6042 27.1404 19.7139 26.8754 19.9093 26.6801C20.1046 26.4847 20.3696 26.375 20.6459 26.375Z" fill="white" stroke="white" stroke-width="1.16667" stroke-linecap="round" stroke-linejoin="round"/>
</mask>
<g mask="url(#mask0_90_6)">
<path d="M17 17H42V42H17V17Z" fill="#121212"/>
</g>
</svg>
