<svg width="24" height="24" viewBox="0 0 24 24" fill="none" xmlns="http://www.w3.org/2000/svg">
<path d="M18.8 12C18.8 13.3449 18.4012 14.6596 17.654 15.7779C16.9068 16.8961 15.8448 17.7677 14.6022 18.2824C13.3597 18.7971 11.9925 18.9317 10.6734 18.6693C9.35431 18.407 8.14267 17.7593 7.19167 16.8083C6.24068 15.8573 5.59304 14.6457 5.33066 13.3266C5.06828 12.0075 5.20294 10.6403 5.71762 9.39775C6.2323 8.15521 7.10387 7.0932 8.22212 6.34601C9.34038 5.59881 10.6551 5.2 12 5.2C13.8027 5.20265 15.5307 5.91992 16.8054 7.1946C18.0801 8.46927 18.7974 10.1973 18.8 12ZM12 3.6C12.2122 3.6 12.4157 3.51571 12.5657 3.36569C12.7157 3.21566 12.8 3.01217 12.8 2.8V0.8C12.8 0.587827 12.7157 0.384344 12.5657 0.234315C12.4157 0.0842854 12.2122 0 12 0C11.7878 0 11.5843 0.0842854 11.4343 0.234315C11.2843 0.384344 11.2 0.587827 11.2 0.8V2.8C11.2 3.01217 11.2843 3.21566 11.4343 3.36569C11.5843 3.51571 11.7878 3.6 12 3.6ZM4.93 6.06C5.08123 6.20722 5.28395 6.28959 5.495 6.28959C5.70605 6.28959 5.90877 6.20722 6.06 6.06C6.20961 5.91003 6.29363 5.70684 6.29363 5.495C6.29363 5.28316 6.20961 5.07997 6.06 4.93L4.65 3.51C4.57827 3.4226 4.48904 3.35119 4.38805 3.30036C4.28705 3.24952 4.17654 3.2204 4.06361 3.21485C3.95068 3.2093 3.83784 3.22746 3.73236 3.26815C3.62687 3.30884 3.53107 3.37117 3.45112 3.45112C3.37117 3.53107 3.30884 3.62687 3.26815 3.73236C3.22746 3.83784 3.2093 3.95068 3.21485 4.06361C3.2204 4.17654 3.24952 4.28705 3.30036 4.38805C3.35119 4.48904 3.4226 4.57827 3.51 4.65L4.93 6.06ZM3.6 12C3.6 11.7878 3.51571 11.5843 3.36569 11.4343C3.21566 11.2843 3.01217 11.2 2.8 11.2H0.8C0.587827 11.2 0.384344 11.2843 0.234315 11.4343C0.0842854 11.5843 0 11.7878 0 12C0 12.2122 0.0842854 12.4157 0.234315 12.5657C0.384344 12.7157 0.587827 12.8 0.8 12.8H2.8C3.01217 12.8 3.21566 12.7157 3.36569 12.5657C3.51571 12.4157 3.6 12.2122 3.6 12ZM4.93 17.94L3.51 19.35C3.35977 19.5017 3.2755 19.7065 3.2755 19.92C3.2755 20.1335 3.35977 20.3383 3.51 20.49C3.66466 20.6351 3.86796 20.7171 4.08 20.72C4.29243 20.7191 4.49643 20.6368 4.65 20.49L6.06 19.07C6.19789 18.9178 6.27197 18.7184 6.26692 18.5131C6.26186 18.3079 6.17806 18.1124 6.03285 17.9672C5.88764 17.8219 5.69215 17.7381 5.48685 17.7331C5.28156 17.728 5.08218 17.8021 4.93 17.94ZM12 20.4C11.7878 20.4 11.5843 20.4843 11.4343 20.6343C11.2843 20.7843 11.2 20.9878 11.2 21.2V23.2C11.2 23.4122 11.2843 23.6157 11.4343 23.7657C11.5843 23.9157 11.7878 24 12 24C12.2122 24 12.4157 23.9157 12.5657 23.7657C12.7157 23.6157 12.8 23.4122 12.8 23.2V21.2C12.8 20.9878 12.7157 20.7843 12.5657 20.6343C12.4157 20.4843 12.2122 20.4 12 20.4ZM19.07 17.94C18.9178 17.8021 18.7184 17.728 18.5131 17.7331C18.3079 17.7381 18.1124 17.8219 17.9672 17.9672C17.8219 18.1124 17.7381 18.3079 17.7331 18.5131C17.728 18.7184 17.8021 18.9178 17.94 19.07L19.35 20.49C19.5036 20.6368 19.7076 20.7191 19.92 20.72C20.132 20.7171 20.3353 20.6351 20.49 20.49C20.6402 20.3383 20.7245 20.1335 20.7245 19.92C20.7245 19.7065 20.6402 19.5017 20.49 19.35L19.07 17.94ZM23.2 11.2H21.2C20.9878 11.2 20.7843 11.2843 20.6343 11.4343C20.4843 11.5843 20.4 11.7878 20.4 12C20.4 12.2122 20.4843 12.4157 20.6343 12.5657C20.7843 12.7157 20.9878 12.8 21.2 12.8H23.2C23.4122 12.8 23.6157 12.7157 23.7657 12.5657C23.9157 12.4157 24 12.2122 24 12C24 11.7878 23.9157 11.5843 23.7657 11.4343C23.6157 11.2843 23.4122 11.2 23.2 11.2ZM18.51 6.29C18.614 6.29092 18.7171 6.27104 18.8132 6.23155C18.9094 6.19205 18.9967 6.13372 19.07 6.06L20.49 4.65C20.6176 4.49456 20.6828 4.29723 20.6729 4.09639C20.663 3.89555 20.5788 3.70556 20.4366 3.56337C20.2944 3.42118 20.1045 3.33696 19.9036 3.3271C19.7028 3.31724 19.5054 3.38243 19.35 3.51L17.94 4.93C17.7904 5.07997 17.7064 5.28316 17.7064 5.495C17.7064 5.70684 17.7904 5.91003 17.94 6.06C18.0145 6.13494 18.1034 6.19398 18.2014 6.23351C18.2994 6.27305 18.4044 6.29227 18.51 6.29Z" fill="black"/>
</svg>
