<svg width="30" height="30" viewBox="0 0 30 30" fill="none" xmlns="http://www.w3.org/2000/svg">
<path d="M15 24C11.875 24 9.1125 22.4 7.5 20C7.5375 17.5 12.5 16.125 15 16.125C17.5 16.125 22.4625 17.5 22.5 20C21.6736 21.2305 20.5573 22.2389 19.2494 22.9365C17.9416 23.634 16.4823 23.9992 15 24ZM15 6.25C15.9946 6.25 16.9484 6.64509 17.6516 7.34835C18.3549 8.05161 18.75 9.00544 18.75 10C18.75 10.9946 18.3549 11.9484 17.6516 12.6516C16.9484 13.3549 15.9946 13.75 15 13.75C14.0054 13.75 13.0516 13.3549 12.3483 12.6516C11.6451 11.9484 11.25 10.9946 11.25 10C11.25 9.00544 11.6451 8.05161 12.3483 7.34835C13.0516 6.64509 14.0054 6.25 15 6.25ZM15 2.5C13.3585 2.5 11.733 2.82332 10.2165 3.45151C8.69989 4.07969 7.3219 5.00043 6.16116 6.16116C3.81696 8.50537 2.5 11.6848 2.5 15C2.5 18.3152 3.81696 21.4946 6.16116 23.8388C7.3219 24.9996 8.69989 25.9203 10.2165 26.5485C11.733 27.1767 13.3585 27.5 15 27.5C18.3152 27.5 21.4946 26.183 23.8388 23.8388C26.183 21.4946 27.5 18.3152 27.5 15C27.5 8.0875 21.875 2.5 15 2.5Z" fill="white"/>
</svg>
