<svg width="64" height="64" viewBox="0 0 64 64" fill="none" xmlns="http://www.w3.org/2000/svg">
<circle cx="32" cy="32" r="32" fill="#0F1217"/>
<path d="M13.0115 37.5L4.69547 31.732L13.0115 25.964L13.5435 26.72L6.26347 31.732L13.5435 36.744L13.0115 37.5ZM32.8398 40.104C31.4398 40.888 29.4892 41.28 26.9878 41.28C24.5052 41.28 22.3118 40.384 20.4078 38.592C18.5225 36.8 17.5798 34.5787 17.5798 31.928C17.5798 29.2587 18.4012 27.028 20.0438 25.236C21.7052 23.444 23.8425 22.548 26.4558 22.548C28.5652 22.548 30.6278 22.8747 32.6438 23.528L32.3078 24.592C30.3665 23.9947 28.3598 23.696 26.2878 23.696C24.2158 23.696 22.4705 24.4893 21.0518 26.076C19.6518 27.644 18.9518 29.576 18.9518 31.872C18.9518 34.1493 19.7638 36.0907 21.3878 37.696C23.0305 39.3013 24.9252 40.104 27.0718 40.104C29.2185 40.104 31.0012 39.8053 32.4198 39.208L32.8398 40.104ZM41.0983 23.612C40.0903 23.612 39.269 23.8547 38.6343 24.34C37.9996 24.8253 37.6823 25.5067 37.6823 26.384C37.6823 27.392 38.1023 28.2973 38.9423 29.1C39.5396 29.6787 40.305 30.2947 41.2383 30.948C42.1903 31.5827 42.8436 32.04 43.1983 32.32C43.553 32.6 43.9823 32.9827 44.4863 33.468C45.401 34.3827 45.8583 35.4373 45.8583 36.632C45.8583 38.1813 45.3356 39.3573 44.2903 40.16C43.2636 40.944 41.817 41.336 39.9503 41.336C38.1023 41.336 36.553 40.8507 35.3023 39.88L35.9743 38.9C37.2436 39.7587 38.5876 40.188 40.0063 40.188C41.425 40.188 42.5263 39.8893 43.3103 39.292C44.113 38.6947 44.5143 37.8547 44.5143 36.772C44.5143 35.8387 44.113 34.98 43.3103 34.196C42.7503 33.636 41.9943 33.0293 41.0423 32.376C40.109 31.7227 39.4556 31.256 39.0823 30.976C38.709 30.6773 38.2703 30.2853 37.7663 29.8C36.8143 28.848 36.3383 27.7467 36.3383 26.496C36.3383 25.2453 36.777 24.2653 37.6543 23.556C38.5503 22.8467 39.7823 22.492 41.3503 22.492C42.9183 22.492 44.3276 22.8 45.5783 23.416L45.1023 24.452C43.945 23.892 42.6103 23.612 41.0983 23.612ZM58.3002 31.732L49.9842 37.5L49.4522 36.744L56.7322 31.732L49.4522 26.72L49.9842 25.964L58.3002 31.732Z" fill="white"/>
</svg>
