<svg width="45" height="44" viewBox="0 0 45 44" fill="none" xmlns="http://www.w3.org/2000/svg">
<path d="M13.0435 44C11.8478 44 10.8239 43.5786 9.97174 42.7358C9.11956 41.893 8.6942 40.8811 8.69565 39.7C8.69565 38.5175 9.12174 37.5048 9.97391 36.662C10.8261 35.8192 11.8493 35.3986 13.0435 35.4C14.2391 35.4 15.263 35.8214 16.1152 36.6642C16.9674 37.507 17.3928 38.5189 17.3913 39.7C17.3913 40.8825 16.9652 41.8951 16.113 42.7379C15.2609 43.5807 14.2377 44.0014 13.0435 44ZM34.7826 44C33.587 44 32.563 43.5786 31.7109 42.7358C30.8587 41.893 30.4333 40.8811 30.4348 39.7C30.4348 38.5175 30.8609 37.5048 31.713 36.662C32.5652 35.8192 33.5884 35.3986 34.7826 35.4C35.9783 35.4 37.0022 35.8214 37.8543 36.6642C38.7065 37.507 39.1319 38.5189 39.1304 39.7C39.1304 40.8825 38.7043 41.8951 37.8522 42.7379C37 43.5807 35.9768 44.0014 34.7826 44ZM5.70652 33.25L12.1739 21.64L4.34783 5.3H0V1H7.06522L9.13043 5.3H45L34.1848 24.65H15.4348L13.0435 28.95H39.1304V33.25H5.70652Z" fill="#F8F8F8"/>
<path d="M16.3339 20C16.2313 20 16.1519 19.972 16.0959 19.916C16.0399 19.8507 16.0119 19.7713 16.0119 19.678V10.536C16.0119 10.4333 16.0399 10.354 16.0959 10.298C16.1519 10.2327 16.2313 10.2 16.3339 10.2H17.0339C17.1366 10.2 17.2159 10.2327 17.2719 10.298C17.3373 10.354 17.3699 10.4333 17.3699 10.536V14.008L21.1079 10.424C21.1453 10.3867 21.2059 10.34 21.2899 10.284C21.3833 10.228 21.5046 10.2 21.6539 10.2H22.4099C22.4846 10.2 22.5499 10.228 22.6059 10.284C22.6619 10.34 22.6899 10.4053 22.6899 10.48C22.6899 10.5547 22.6713 10.6153 22.6339 10.662L18.3079 14.89L22.9139 19.524C22.9606 19.58 22.9839 19.6453 22.9839 19.72C22.9839 19.7947 22.9559 19.86 22.8999 19.916C22.8439 19.972 22.7786 20 22.7039 20H21.9199C21.7613 20 21.6399 19.972 21.5559 19.916C21.4719 19.8507 21.4113 19.804 21.3739 19.776L17.3699 15.828V19.678C17.3699 19.7713 17.3373 19.8507 17.2719 19.916C17.2159 19.972 17.1366 20 17.0339 20H16.3339ZM30.8651 20.14C30.0531 20.14 29.3717 20.0187 28.8211 19.776C28.2704 19.524 27.8457 19.202 27.5471 18.81C27.2577 18.4087 27.1037 17.984 27.0851 17.536C27.0851 17.4613 27.1131 17.396 27.1691 17.34C27.2344 17.2747 27.3091 17.242 27.3931 17.242H28.1071C28.2191 17.242 28.3031 17.27 28.3591 17.326C28.4151 17.382 28.4524 17.4473 28.4711 17.522C28.5177 17.746 28.6297 17.97 28.8071 18.194C28.9937 18.4087 29.2504 18.5907 29.5771 18.74C29.9131 18.88 30.3424 18.95 30.8651 18.95C31.6677 18.95 32.2557 18.81 32.6291 18.53C33.0117 18.2407 33.2031 17.858 33.2031 17.382C33.2031 17.0553 33.1004 16.794 32.8951 16.598C32.6991 16.3927 32.3957 16.2107 31.9851 16.052C31.5744 15.8933 31.0424 15.7207 30.3891 15.534C29.7077 15.338 29.1431 15.1233 28.6951 14.89C28.2471 14.6567 27.9111 14.3673 27.6871 14.022C27.4724 13.6767 27.3651 13.238 27.3651 12.706C27.3651 12.202 27.5004 11.754 27.7711 11.362C28.0417 10.9607 28.4291 10.6433 28.9331 10.41C29.4464 10.1767 30.0671 10.06 30.7951 10.06C31.3737 10.06 31.8777 10.1393 32.3071 10.298C32.7457 10.4473 33.1097 10.6527 33.3991 10.914C33.6884 11.166 33.9077 11.4413 34.0571 11.74C34.2064 12.0293 34.2857 12.314 34.2951 12.594C34.2951 12.6593 34.2717 12.7247 34.2251 12.79C34.1784 12.846 34.1037 12.874 34.0011 12.874H33.2591C33.1937 12.874 33.1237 12.8553 33.0491 12.818C32.9837 12.7807 32.9324 12.7107 32.8951 12.608C32.8391 12.2253 32.6244 11.9033 32.2511 11.642C31.8777 11.3807 31.3924 11.25 30.7951 11.25C30.1884 11.25 29.6937 11.3667 29.3111 11.6C28.9377 11.8333 28.7511 12.1973 28.7511 12.692C28.7511 13.0093 28.8397 13.2753 29.0171 13.49C29.1944 13.6953 29.4744 13.8773 29.8571 14.036C30.2397 14.1947 30.7391 14.3627 31.3551 14.54C32.1017 14.7453 32.7131 14.9647 33.1891 15.198C33.6651 15.422 34.0151 15.7067 34.2391 16.052C34.4724 16.388 34.5891 16.822 34.5891 17.354C34.5891 17.942 34.4351 18.446 34.1271 18.866C33.8191 19.2767 33.3851 19.594 32.8251 19.818C32.2744 20.0327 31.6211 20.14 30.8651 20.14Z" fill="black"/>
</svg>
